HIERARCHY
ROOT Hips
{
	OFFSET 0.0000 0.0000 0.0000
	CHANNELS 6 Xposition Yposition Zposition Zrotation Xrotation Yrotation
	JOINT Spine1
	{
		OFFSET -0.0137 5.0038 -0.0537
		CHANNELS 3 Zrotation Xrotation Yrotation
		JOINT Spine2
		{
			OFFSET -0.0000 7.1253 -0.0298
			CHANNELS 3 Zrotation Xrotation Yrotation
			JOINT Chest
			{
				OFFSET -0.0000 7.5501 -0.8160
				CHANNELS 3 Zrotation Xrotation Yrotation
				JOINT Neck1
				{
					OFFSET -0.1817 26.3113 -0.5533
					CHANNELS 3 Zrotation Xrotation Yrotation
					JOINT Neck2
					{
						OFFSET -0.0000 7.7094 2.3026
						CHANNELS 3 Zrotation Xrotation Yrotation
						JOINT Head
						{
							OFFSET -0.0000 6.1289 1.9537
							CHANNELS 3 Zrotation Xrotation Yrotation
							JOINT Jaw
							{
								OFFSET 0.0026 0.4756 3.0949
								CHANNELS 3 Zrotation Xrotation Yrotation
								End Site
								{
									OFFSET 0.0 1.0 0.0
								}
							}
							JOINT LeftEye
							{
								OFFSET 3.2064 5.3802 7.5869
								CHANNELS 3 Zrotation Xrotation Yrotation
								End Site
								{
									OFFSET 0.0 1.0 0.0
								}
							}
							JOINT RightEye
							{
								OFFSET -3.2224 5.3619 7.5582
								CHANNELS 3 Zrotation Xrotation Yrotation
								End Site
								{
									OFFSET 0.0 1.0 0.0
								}
							}
						}
					}
				}
				JOINT LeftShoulder
				{
					OFFSET 1.6217 23.2372 5.1134
					CHANNELS 3 Zrotation Xrotation Yrotation
					JOINT LeftArm
					{
						OFFSET 14.9198 0.0000 -5.5023
						CHANNELS 3 Zrotation Xrotation Yrotation
						JOINT LeftForeArm
						{
							OFFSET 28.7393 0.0000 -0.0026
							CHANNELS 3 Zrotation Xrotation Yrotation
							JOINT LeftHand
							{
								OFFSET 27.0940 -0.0000 0.0026
								CHANNELS 3 Zrotation Xrotation Yrotation
								JOINT LeftHandThumbEnd
								{
									OFFSET 12.2686 -3.2202 4.8331
									CHANNELS 3 Zrotation Xrotation Yrotation
									End Site
									{
										OFFSET 0.0 1.0 0.0
									}
								}
								JOINT LeftHandMiddleEnd
								{
									OFFSET 19.0120 -0.3129 -0.0340
									CHANNELS 3 Zrotation Xrotation Yrotation
									End Site
									{
										OFFSET 0.0 1.0 0.0
									}
								}
							}
						}
					}
				}
				JOINT RightShoulder
				{
					OFFSET -1.3801 23.1803 5.2142
					CHANNELS 3 Zrotation Xrotation Yrotation
					JOINT RightArm
					{
						OFFSET -15.0372 0.0000 -5.5456
						CHANNELS 3 Zrotation Xrotation Yrotation
						JOINT RightForeArm
						{
							OFFSET -28.7366 0.0000 -0.0026
							CHANNELS 3 Zrotation Xrotation Yrotation
							JOINT RightHand
							{
								OFFSET -27.1336 -0.0000 0.0026
								CHANNELS 3 Zrotation Xrotation Yrotation
								JOINT RightHandThumbEnd
								{
									OFFSET -12.2642 -3.2115 4.8040
									CHANNELS 3 Zrotation Xrotation Yrotation
									End Site
									{
										OFFSET 0.0 1.0 0.0
									}
								}
								JOINT RightHandMiddleEnd
								{
									OFFSET -19.0006 -0.3066 -0.0316
									CHANNELS 3 Zrotation Xrotation Yrotation
									End Site
									{
										OFFSET 0.0 1.0 0.0
									}
								}
							}
						}
					}
				}
			}
		}
	}
	JOINT LeftLeg
	{
		OFFSET 10.0432 -8.4345 2.5957
		CHANNELS 3 Zrotation Xrotation Yrotation
		JOINT LeftShin
		{
			OFFSET -0.0000 -43.2218 -0.8029
			CHANNELS 3 Zrotation Xrotation Yrotation
			JOINT LeftFoot
			{
				OFFSET 0.0000 -42.1551 -3.4815
				CHANNELS 3 Zrotation Xrotation Yrotation
				JOINT LeftToeBase
				{
					OFFSET 0.0000 -5.0595 13.2315
					CHANNELS 3 Zrotation Xrotation Yrotation
					End Site
					{
						OFFSET 0.0 1.0 0.0
					}
				}
			}
		}
	}
	JOINT RightLeg
	{
		OFFSET -10.0473 -8.2953 2.6203
		CHANNELS 3 Zrotation Xrotation Yrotation
		JOINT RightShin
		{
			OFFSET 0.0000 -43.3622 -0.8056
			CHANNELS 3 Zrotation Xrotation Yrotation
			JOINT RightFoot
			{
				OFFSET 0.0000 -42.1174 -3.4784
				CHANNELS 3 Zrotation Xrotation Yrotation
				JOINT RightToeBase
				{
					OFFSET -0.0000 -5.0796 13.2842
					CHANNELS 3 Zrotation Xrotation Yrotation
					End Site
					{
						OFFSET 0.0 1.0 0.0
					}
				}
			}
		}
	}
}
MOTION
Frames: 11
Frame Time: 0.033333
-4.0181 100.3066 -0.7538 -0.2647 0.2746 0.0015 0.3701 -2.9924 -0.2575 -0.4507 -5.8182 -0.4610 -0.8066 9.9636 -2.5461 4.4627 2.5910 1.2619 -1.0329 -3.6290 -1.0302 -0.6873 -7.8090 -1.5416 0.0111 0.0434 -0.0026 0.7306 -10.4714 -3.8546 -0.7084 -10.5264 3.8491 -23.8618 10.4042 -12.9748 -53.3507 8.3023 -25.6229 0.1844 0.0954 -23.2181 -0.2657 -1.3261 1.4199 -15.7966 10.8030 15.7617 -60.5594 1.4507 2.4445 24.7070 8.5862 14.0693 55.5916 13.3423 17.0858 0.2590 -0.0348 29.9480 -0.5444 -3.9377 0.4002 15.5806 7.0838 -16.3063 49.7008 -3.7245 -5.2899 1.9400 1.3309 0.3223 0.0563 1.8523 0.0613 -3.1769 -4.2629 4.5796 1.6295 -0.0068 -1.8951 -2.4662 0.9433 -1.7079 0.0018 1.8270 -0.0811 5.6670 -3.1894 -5.8817 -1.4207 0.2803 0.9965
-3.8514 100.3292 -0.8176 -0.2713 0.3092 -0.0482 0.3351 -2.9794 -0.2676 -0.4421 -5.7990 -0.3976 -0.7980 9.9202 -2.6176 4.5248 2.7018 1.2561 -1.0409 -3.5956 -1.0862 -0.7443 -7.7246 -1.6284 0.0105 0.0369 0.0144 0.7264 -10.4639 -3.8369 -0.7052 -10.5169 3.8636 -23.8698 10.4712 -12.9972 -53.3212 8.1128 -25.4381 0.1244 0.0910 -23.0673 -0.3476 -1.0755 1.4793 -15.8234 10.7735 15.7176 -60.5051 1.4770 2.3505 24.6214 8.5922 14.0191 55.6632 13.1864 17.1071 0.1808 -0.0028 29.8687 -0.2645 -4.5384 0.5709 15.5875 7.0839 -16.3146 49.8576 -3.7007 -5.2563 1.8220 1.2527 0.3860 0.0362 1.7941 0.0042 -3.2543 -4.2243 4.6282 1.6333 -0.0658 -1.9266 -2.5663 0.8871 -1.5232 0.0002 1.7051 -0.0829 5.7294 -3.1589 -5.9754 -1.4242 0.1859 0.9875
-3.6795 100.3590 -0.8950 -0.2581 0.3658 -0.0759 0.2866 -2.9692 -0.2544 -0.4427 -5.8242 -0.4172 -0.7833 9.9250 -2.6296 4.6261 2.8234 1.2268 -1.0505 -3.6110 -1.1498 -0.8471 -7.5233 -1.7410 0.0113 0.0269 0.0208 0.7203 -10.4903 -3.8307 -0.6972 -10.5383 3.8691 -23.8352 10.5093 -13.0157 -53.3428 8.0295 -25.3346 0.0935 0.0760 -23.0207 -0.4795 -0.9574 1.6454 -15.8432 10.7742 15.7185 -60.4866 1.4803 2.3731 24.5460 8.5709 13.9947 55.7157 13.0300 16.9166 0.1505 -0.0231 29.8576 -0.1104 -5.1864 0.7344 15.5772 7.1200 -16.3142 49.9370 -3.6918 -5.2528 1.6729 1.1249 0.4022 0.0213 1.7908 -0.0303 -3.2849 -4.2134 4.6813 1.6369 -0.0712 -1.9445 -2.7103 0.7972 -1.3298 0.0066 1.6281 -0.0977 5.8761 -3.1619 -6.1181 -1.4234 0.1399 0.9971
-3.4166 100.3727 -0.9851 -0.2480 0.4607 -0.0472 0.2176 -2.9711 -0.2655 -0.4383 -5.8402 -0.4213 -0.7457 9.9166 -2.6339 4.7389 2.9872 1.1966 -1.0598 -3.6395 -1.2028 -0.9228 -7.3702 -1.8310 0.0117 0.0205 0.0183 0.7134 -10.5102 -3.8329 -0.6897 -10.5530 3.8647 -23.7688 10.5238 -12.9945 -53.3855 8.0728 -25.4320 0.0656 0.0708 -23.0204 -0.5553 -0.8831 1.7317 -15.8350 10.7821 15.7231 -60.4617 1.4709 2.3951 24.4608 8.5357 13.9581 55.7919 12.9162 16.6883 0.0506 -0.0237 29.8936 0.0978 -5.7166 0.8138 15.5757 7.1615 -16.3033 49.9420 -3.6760 -5.2531 1.5241 0.9141 0.4235 0.0115 1.8345 -0.0412 -3.2970 -4.2161 4.6481 1.6413 -0.0546 -1.9344 -2.8705 0.6591 -1.2029 0.0104 1.5753 -0.1086 6.0765 -3.1746 -6.2639 -1.4214 0.1081 0.9987
-3.1322 100.3949 -1.1023 -0.2480 0.5972 0.0039 0.1335 -2.9707 -0.2722 -0.4310 -5.8590 -0.4302 -0.7053 9.9060 -2.6361 4.8808 3.1489 1.1546 -1.0661 -3.6546 -1.2226 -0.9907 -7.2867 -1.9155 0.0133 0.0176 0.0211 0.7101 -10.5199 -3.8287 -0.6834 -10.5600 3.8641 -23.6694 10.5410 -12.9437 -53.4157 8.1654 -25.6708 0.0310 0.0638 -23.0732 -0.5698 -0.7667 1.7300 -15.7395 10.8067 15.6990 -60.4048 1.4816 2.3762 24.4009 8.4920 13.9365 55.8011 12.7846 16.3575 -0.0039 -0.0254 29.9154 0.2528 -6.0837 0.9034 15.5595 7.2006 -16.2971 49.9347 -3.6732 -5.2437 1.3762 0.6088 0.4660 0.0074 1.9519 -0.0506 -3.2867 -4.2338 4.5523 1.6434 -0.0419 -1.9191 -3.0126 0.4477 -1.0837 0.0085 1.5833 -0.1254 6.2766 -3.2102 -6.4310 -1.4204 0.0806 1.0061
-2.8232 100.3968 -1.2568 -0.2571 0.7947 0.0360 0.0270 -2.9634 -0.2808 -0.4356 -5.8762 -0.4354 -0.6472 9.8591 -2.6464 5.0405 3.3233 1.1162 -1.0669 -3.6653 -1.2058 -1.0404 -7.2281 -1.9916 0.0151 0.0162 0.0247 0.7105 -10.5194 -3.8258 -0.6801 -10.5606 3.8671 -23.5034 10.5468 -12.8711 -53.4821 8.3044 -25.9967 0.0089 0.0660 -23.1282 -0.6225 -0.6546 1.6341 -15.6424 10.8427 15.6851 -60.3263 1.5128 2.3529 24.3667 8.4256 13.9286 55.7420 12.6018 15.9392 -0.0155 -0.0069 29.8432 0.3536 -6.3026 0.9803 15.5255 7.2271 -16.2645 49.8901 -3.6829 -5.2114 1.2390 0.1655 0.5035 -0.0005 2.2095 -0.0601 -3.2910 -4.3020 4.4232 1.6447 -0.0607 -1.9069 -3.1403 0.0733 -0.9402 0.0057 1.7809 -0.1285 6.4436 -3.3251 -6.6047 -1.4201 0.0248 1.0114
-2.5602 100.4080 -1.4308 -0.2756 1.0334 0.0033 -0.1120 -2.9353 -0.2731 -0.4507 -5.8944 -0.4584 -0.5534 9.7708 -2.5967 5.2232 3.5518 1.0590 -1.0771 -3.6768 -1.1653 -1.0761 -7.2646 -2.0165 0.0181 0.0128 0.0324 0.7103 -10.5230 -3.8205 -0.6735 -10.5668 3.8755 -23.2410 10.5823 -12.8154 -53.6168 8.4374 -26.3561 0.0244 0.0657 -23.2233 -0.6717 -0.6865 1.4763 -15.5356 10.8555 15.6691 -60.2084 1.5387 2.3574 24.3328 8.3743 13.9398 55.6381 12.3541 15.4570 0.0058 0.0100 29.7437 0.3911 -6.3536 1.0286 15.5096 7.2448 -16.2407 49.8431 -3.6920 -5.2082 1.1213 -0.4613 0.5986 -0.0179 2.7567 -0.0890 -3.3269 -4.5204 4.2959 1.6491 -0.1071 -1.8966 -3.2375 -0.6784 -0.7378 -0.0022 2.6302 -0.1289 6.5842 -3.7367 -6.6878 -1.4202 -0.0948 1.0192
-2.3028 100.4129 -1.6336 -0.3120 1.2968 -0.1246 -0.2834 -2.8785 -0.2826 -0.4777 -5.8826 -0.4612 -0.4137 9.6332 -2.5004 5.4048 3.8205 0.9999 -1.0822 -3.6814 -1.2100 -1.0825 -7.4381 -1.9113 0.0169 0.0160 0.0188 0.7065 -10.5235 -3.8361 -0.6726 -10.5650 3.8624 -22.8477 10.6895 -12.7906 -53.7724 8.4310 -26.6063 0.0118 0.0650 -23.3303 -0.6741 -0.8858 1.2909 -15.4594 10.8596 15.6705 -60.1083 1.5523 2.3564 24.2311 8.3547 13.9426 55.5758 11.8817 14.9190 0.0220 0.0257 29.5805 0.4382 -6.2437 0.9832 15.4979 7.2579 -16.2061 49.7767 -3.7226 -5.1904 1.0564 -1.3512 0.7390 -0.0375 3.7676 -0.1345 -3.4333 -4.9871 4.2284 1.6580 -0.1509 -1.8793 -3.2912 -2.1630 -0.4615 -0.0209 4.8456 -0.0963 6.6607 -4.6991 -6.6580 -1.4192 -0.2968 1.0209
-2.1043 100.4316 -1.8521 -0.3195 1.5334 -0.3790 -0.5412 -2.7405 -0.2618 -0.4822 -5.8529 -0.4588 -0.3064 9.4901 -2.4121 5.6555 4.0857 0.9637 -1.0915 -3.5957 -1.2150 -1.1147 -7.8476 -1.8716 0.0190 0.0478 0.0567 0.7186 -10.5107 -3.8070 -0.6808 -10.5605 3.9084 -22.3133 10.8786 -12.8678 -53.9444 8.2667 -26.5765 0.0319 0.0744 -23.4400 -0.6605 -1.3137 1.0643 -15.4730 10.8253 15.6542 -60.1498 1.5946 2.2946 24.1062 8.4077 13.9528 55.5502 11.1272 14.3113 0.0753 0.0558 29.4415 0.3125 -5.9473 1.0187 15.4323 7.2559 -16.1822 49.6711 -3.7165 -5.2301 0.9792 -2.4346 0.8853 -0.0632 5.2446 -0.2137 -3.5544 -5.7134 4.3159 1.6577 -0.0739 -1.8898 -3.3969 -4.4392 -0.2687 -0.0150 8.6223 -0.0556 6.7970 -6.2401 -6.4335 -1.4372 -0.7211 1.0060
-2.0555 100.3501 -2.0368 -0.3749 1.5331 -0.7099 -0.7500 -2.5126 -0.2725 -0.5445 -5.6826 -0.4236 -0.2015 9.3659 -2.3784 5.8063 4.2827 0.9460 -1.0491 -3.6298 -1.2812 -1.1189 -8.0293 -1.8319 0.0045 0.0652 -0.0054 0.7019 -10.4980 -3.8601 -0.6941 -10.5348 3.8455 -21.6480 11.1188 -12.8687 -54.1751 8.0255 -26.4170 0.0445 0.1176 -23.3696 -0.5276 -1.6379 0.8188 -15.5210 10.8017 15.6069 -60.1790 1.5861 2.2805 23.9519 8.5866 13.8849 55.5362 9.8634 13.5366 0.1292 0.1209 29.3583 0.0994 -5.4519 1.0695 15.4711 7.2479 -16.1137 49.5588 -3.7129 -5.1161 1.0432 -3.3353 1.0545 -0.0822 6.8672 -0.2187 -3.6967 -6.4074 4.2273 1.6637 -0.0919 -1.8440 -3.5048 -6.6988 -0.1969 -0.0113 12.9867 0.1373 7.1013 -7.7729 -5.7252 -1.4393 -1.0923 0.9764
-2.1620 100.2670 -2.1089 -0.4180 1.4169 -1.1075 -0.9573 -2.3141 -0.2962 -0.5810 -5.6001 -0.4163 -0.1175 9.4025 -2.3952 5.6917 4.4891 0.9393 -1.0057 -3.5979 -1.3412 -1.0995 -8.0248 -1.7345 0.0006 0.0845 -0.0240 0.6978 -10.4774 -3.8750 -0.6978 -10.5085 3.8250 -21.3131 11.3306 -12.9039 -54.0666 7.9693 -25.9945 -0.0492 0.1300 -23.0711 -0.3577 -2.1435 0.6637 -15.6347 10.8420 15.7004 -60.2813 1.5640 2.2747 23.9155 8.8078 13.7086 55.4119 8.5980 12.6116 0.0917 0.1723 29.6904 -0.4248 -5.2112 1.0191 15.4382 7.2778 -16.0427 49.5770 -3.5999 -5.0659 1.1720 -3.8290 1.2408 -0.0603 8.0889 -0.2080 -3.8638 -7.0211 4.0771 1.6713 -0.0465 -1.8341 -3.9648 -8.7748 -0.0973 0.0306 17.2761 0.2829 7.4293 -9.2204 -4.8598 -1.4504 -1.4826 1.0034
